<?xml version="1.0" standalone="no"?>
<!DOCTYPE svg PUBLIC "-//W3C//DTD SVG 20010904//EN"
 "http://www.w3.org/TR/2001/REC-SVG-20010904/DTD/svg10.dtd">
<svg version="1.0" xmlns="http://www.w3.org/2000/svg"
 width="512.000000pt" height="512.000000pt" viewBox="0 0 512.000000 512.000000"
 preserveAspectRatio="xMidYMid meet">
<metadata>
Created by potrace 1.14, written by Peter Selinger 2001-2017
</metadata>
<g transform="translate(0.000000,512.000000) scale(0.100000,-0.100000)"
fill="#000000" stroke="none">
<path d="M2369 5116 c-2 -2 -34 -6 -70 -10 -57 -5 -218 -31 -314 -51 -155 -31
-387 -115 -570 -206 -241 -120 -465 -281 -657 -473 -423 -421 -680 -956 -745
-1551 -10 -89 -10 -450 0 -530 12 -98 17 -139 21 -160 4 -20 44 -207 51 -235
8 -38 70 -222 97 -290 81 -207 243 -482 392 -667 36 -45 114 -129 172 -187
356 -357 808 -603 1284 -699 217 -45 292 -52 535 -52 110 0 229 4 265 8 36 5
79 10 95 12 31 4 41 6 135 25 30 6 69 14 85 17 123 21 390 119 566 207 593
298 1052 823 1269 1452 22 64 42 126 45 138 40 169 65 289 70 326 16 136 20
212 20 380 0 163 -4 229 -20 358 -5 33 -6 39 -25 132 -6 30 -13 66 -16 78 -3
13 -12 49 -20 80 -8 32 -17 64 -19 72 -2 8 -17 53 -33 100 -148 426 -425 835
-747 1105 -33 28 -62 52 -65 55 -16 18 -139 107 -225 162 -178 116 -369 207
-578 277 -62 21 -115 39 -119 39 -5 1 -9 2 -10 3 -2 0 -10 2 -18 4 -8 2 -55
12 -105 23 -89 20 -132 28 -210 38 -22 3 -51 8 -65 11 -28 5 -466 14 -471 9z
m454 -340 c15 -2 60 -10 100 -16 278 -45 523 -136 807 -301 89 -52 260 -184
374 -289 73 -67 226 -249 294 -348 202 -295 338 -656 379 -1007 10 -88 10
-409 1 -495 -8 -68 -34 -221 -42 -249 -3 -9 -8 -30 -11 -48 -12 -76 -102 -318
-161 -439 -176 -357 -432 -652 -758 -872 -297 -201 -639 -328 -996 -369 -128
-15 -561 -6 -590 12 -3 2 -26 6 -50 10 -128 18 -344 83 -502 151 -444 189
-847 562 -1077 996 -71 134 -158 351 -176 442 -3 10 -9 33 -14 50 -6 17 -12
42 -15 56 -2 14 -11 60 -20 103 -8 43 -19 110 -23 150 -10 87 -10 410 -1 487
23 194 74 402 135 560 4 8 7 17 8 20 28 82 142 297 214 407 292 440 722 760
1221 909 96 28 88 26 190 47 109 23 128 26 205 33 38 4 72 8 74 10 5 5 399 -4
434 -10z"/>
<path d="M1616 3839 c-30 -24 -37 -54 -41 -182 -7 -216 -18 -564 -19 -597 -3
-65 23 -192 49 -246 41 -85 135 -154 209 -154 15 0 16 -13 11 -122 -2 -68 -7
-197 -10 -288 -3 -91 -8 -201 -10 -245 -8 -152 -19 -470 -19 -567 -1 -83 2
-101 20 -124 41 -55 70 -69 144 -69 61 0 72 3 106 30 20 17 45 46 56 65 19 36
20 107 3 505 -9 212 -18 540 -19 669 l-1 139 45 13 c62 18 143 92 174 158 45
95 48 127 48 560 0 462 3 442 -78 450 -33 4 -46 0 -67 -20 -27 -24 -27 -27
-28 -162 -2 -282 -6 -418 -13 -439 -9 -27 -69 -47 -97 -32 -38 20 -40 42 -37
340 l3 291 -28 24 c-34 29 -74 30 -106 3 l-24 -19 -3 -293 c-2 -160 -6 -302
-9 -313 -3 -12 -18 -27 -35 -34 -39 -16 -79 7 -81 48 -1 34 -1 223 1 367 2
196 1 211 -18 235 -25 31 -92 36 -126 9z"/>
<path d="M2983 3842 c-203 -73 -338 -363 -328 -707 7 -265 96 -461 260 -575
l21 -15 2 -565 c1 -311 5 -578 8 -595 17 -81 86 -145 157 -145 66 0 135 54
157 123 11 36 10 214 -5 572 -4 114 -17 502 -17 555 -1 63 1 68 32 75 49 11
133 81 177 148 75 115 111 245 117 428 3 82 -15 219 -40 309 -34 120 -119 261
-193 319 -100 80 -245 110 -348 73z"/>
</g>
</svg>
